<?xml version="1.0" encoding="UTF-8" standalone="no"?>
<svg
   xmlns:dc="http://purl.org/dc/elements/1.1/"
   xmlns:cc="http://creativecommons.org/ns#"
   xmlns:rdf="http://www.w3.org/1999/02/22-rdf-syntax-ns#"
   xmlns:svg="http://www.w3.org/2000/svg"
   xmlns="http://www.w3.org/2000/svg"
   version="1.1"
   id="svg2"
   height="179"
   width="317">
  <metadata
     id="metadata46">
    <rdf:RDF>
      <cc:Work
         rdf:about="">
        <dc:format>image/svg+xml</dc:format>
        <dc:type
           rdf:resource="http://purl.org/dc/dcmitype/StillImage" />
        <dc:title></dc:title>
      </cc:Work>
    </rdf:RDF>
  </metadata>
  <defs
     id="defs44" />
  <path
     id="path6"
     d="m 263.79248,0.0375945 c -0.9506,-0.007 -1.90416,-0.005 -2.85938,0.004 -9.82511,0.094 -19.84045,0.96484 -28.93945,0.96484 -1.436,4.98677 -3.299,11.4349005 -8,14.0000005 l -1,-7.0000005 3,1 0,-8 -66,0 c 1.4,6.18529 -2.27109,8.43166 -3.49609,14.0390705 l -5.37305,30.96093 c -0.267,5.0051 -1.78786,12.981 2.86914,16 l -4,4 5,5 -5,-3 6,23 c 2.461,-3.6027 2,-7.7566 2,-12 3.454,5.6029 1.01,11.6843 1,18 -0.022,13.986995 -0.592,38.331995 11,47.999995 l -4.98438,-55.999995 6.98438,-64 29,-0.0312 15.86914,1.7168 c 4.071,-1.0973 6.57486,-5.86855 7.13086,-9.68555 l 7,-1 c 0.769,3.5886 2.863,2.834 6,2 4.2,9.5399 25.927,4.4784 35,5 0.437,4.019 1.486,6.8428 5,9 -1.011,7.1578 -2.25848,18.9651 -0.27148,26 l 10.65429,29 c 1.237,11.8717 -5.36695,22.534995 -6.87695,33.999995 -1.677,12.725 1.72714,27.396 -12.50586,35 -3.201,-8.578 1.725,-11.42 3,-19 l -14,3.16406 -23,-2.16406 4,-7 c -7.925,-2.506 -12.512,0.95872 -20,0.76172 l -14,-1.76172 c -2.347,14.611 -23.873,4.186 -25,19 -2.828,-3.018 -2.963,-5.965 -3,-10 -7.917,11.866 3.295,24.305 10,34 7.24,-3.992 2.68,-12.843 1,-19 l 2,2 4,-1 c 2.202,3.033 5.464,2.59 9,3 2.961,-3.775 8.306,0.298 11,3 -2.739,-0.28 -3.468,-0.27 -5,2 14.388,5.665 21.4,3.579 34,-5 l -1,3 c 5.493,-2.79 15.5,-1.78 18,-8 l 6,1 c -7.187,7.51 -13.371,16.695 -18,26 l 33,0 c 1.405,-17.796 6.84,-32.178 11,-49 l 3,1 6,-13 -4,2 c 1.285,-4.101 3.078,-6.849 6,-10 l -1,6 c 4.448,-5.564 7.945,-15.962 9,-22.999995 l -4,8.999995 c -0.559,-4.530395 0.969,-8.670995 5,-10.999995 -0.277,-8.6867 5.045,-22.0653 -7,-24 7.573,-14.3772 -5.57469,-32.58924 -4.92969,-47.71484 0.219,-5.1394 1.55005,-15.0965605 -4.50195,-18.1093705 l -13.56836,5.82421 2,-6 c -6.03083,-1.43578 -12.54696,-1.91929 -19.20117,-1.96875 z m -57.79883,38.9687505 3,1 -3,-1 z m 6,1 5,2 c -1.54,-1.8031 -2.597,-1.832 -5,-2 z m 88.33203,3.66602 0.33594,0.66797 -0.33594,-0.66797 z m -0.33203,2.33398 2,0 -2,3 0,-3 z m 1,8 c 0.163,2.1448 -0.37,2.4852 -2,4 l 2,-4 z m -4,1 1,1 -1,-1 z m -114.00195,3.26172 c -10.03041,-0.22733 -9.99805,10.41047 -9.99805,17.73828 8.426,-4.5747 15.496,-7.128 25,-3 -10.494,3.3267 -17.629,2.5707 -19,15 l 2,1 1,-2 2,0 0,2 c 1.779,-2.5745 3.022,-3.919 6,-5 1.494,7.2264 8.773,8.6742 11,1 3.691,2.573 6.409,5.3731 11,6 l 0,4 c 9.516,-3.0834 1.41228,-13.621 -1.13672,-19 l -4.17773,-12.42382 c -3.474,-3.2011 -7.56955,-1.25047 -11.68555,-1.85157 l -11,-3.40625 c -0.34484,-0.0304 -0.67839,-0.0493 -1.00195,-0.0566 z m -27.99805,3.73828 2,0 0,2 -2,0 0,-2 z m 143.60547,1.03321 c 1.0685,-0.0783 2.10203,0.16574 3.39453,0.96679 l -7,0 c 1.4335,-0.4878 2.53697,-0.88848 3.60547,-0.96679 z m -69.60547,6.96679 c -0.757,4.0936 -1.671,7.3502 2,10 -1.369,7.9803 4.495,12.7202 12,11 -0.554,-3.7268 0.417,-4.9318 4,-6 1.994,6.5673 7.184,4.6486 12,2 0.867,11.1148 15.74991,1.6035 14.62891,-6 -2.061,-13.9815 -18.55891,-9.61707 -27.62891,-9.26367 -5.278,0.2057 -9.554,-1.79943 -13,3.26367 l -4,-5 z m 74,2 -4,4 c 0.839,-2.6265 1.374,-3.1613 4,-4 z m -110.05469,6.11133 c 4.44288,0.0228 8.90369,2.00842 11.05469,5.88867 -9.616,-3.3262 -12.44,-3.4728 -22,0 2.0775,-3.9713 6.50244,-5.91143 10.94531,-5.88867 z m 105.05469,8.88867 2,0 0,2 -2,0 0,-2 z m -3,9 2,0 1,5.999995 c -2.221,-1.6747 -2.562,-3.256595 -3,-5.999995 z m 8,0 c 2.128,5.454995 -1.049,10.614995 -6,12.999995 l 6,-12.999995 z m -92,12.999995 -3,10 c 3.984,-2.269 4.77,-5.584 5,-10 l -2,0 z m -52.23438,40.79492 c -1.32021,0.0915 -2.82367,0.76688 -3.76757,1.12891 l -20.99805,6.07617 -19,5.03516 c -10.858,2.746 -16.105599,9.03484 -24.999999,13.96484 -2.5638,-7.648 -19.3467,1.457 -25,3 11.013,4.621 31.771882,0.49764 41.701169,-5.56836 l 6.35742,-5.62891 24.94141,-7.46093 c 3.443,-1.074 24.64805,-4.95846 23.24805,-9.06446 -0.34763,-1.02037 -1.07077,-1.41845 -1.92969,-1.48242 -0.17894,-0.0133 -0.36412,-0.0131 -0.55274,0 z m -112.904291,4.02735 c -7.384963,0.0459 -17.926609,6.9726 -22.861328,9.17773 0.9273,5.56 5.5857,5.20519 10,7.49219 9.7709,5.062 15.7327,9.50781 27,9.50781 l 0,-3 c 16.1068,-1.404 31.2647,-9.711 46.999999,-13 -2.766,-4.128 -7.926999,-1.37663 -11.999999,-0.14062 l -31.984375,9.27929 c -8.8396,0.977 -7.173097,-14.34642 -12.654297,-18.10742 -1.260319,-0.86494 -2.795778,-1.21957 -4.5,-1.20898 z m 165.138671,1.17773 25,0 2,4 c -7.853,3.314 -22.262,4.555 -27,-4 z m 54,7 c 1.577,7.025 -5.168,15.937 -12,17 0.949,-7.246 6.037,-13.066 12,-17 z"
     style="fill:#0e0e0e;stroke:none" />
</svg>
